# xmcd
#
# Track frame offsets:
# 150
# 7265
# 34358
# 57355
# 82331
# 105691
# 108989
# 112287
# 137402
# 160762
# 180639
# 199930
#
# Disc length: 2758 seconds
#
#
# Revision: 0
# Processed by: cddbd v1.4PL0 Copyright (c) Steve Scherf et al.
# Submitted via: FreeRIP 2.35 
#
DISCID=ad0ac40c
DTITLE=Bruthaz Grimm - And Things Will Never Be The Same
DYEAR=1900
DGENRE=Christian Rap
TTITLE0=Intro
TTITLE1=In Satan's Name (Remix)
TTITLE2=Get It All Out
TTITLE3=He Loves You
TTITLE4=Leave Him
TTITLE5=Intro 1
TTITLE6=Intro 2
TTITLE7=My Beautiful
TTITLE8=Parrots
TTITLE9=How We've Changed
TTITLE10=Come Home
TTITLE11=Outro
EXTD=
EXTT0=
EXTT1=
EXTT2=
EXTT3=
EXTT4=
EXTT5=
EXTT6=
EXTT7=
EXTT8=
EXTT9=
EXTT10=
EXTT11=
PLAYORDER=
